<svg width="18" height="18" viewBox="0 0 18 18" fill="none" xmlns="http://www.w3.org/2000/svg">
<path d="M16.9784 4.34141L16.9784 4.34143C17.0562 4.41926 17.1 4.5248 17.1 4.63491C17.1 4.74497 17.0562 4.85056 16.9784 4.92837L4.92837 16.9784C4.84733 17.0595 4.74098 17.1 4.63491 17.1C4.52887 17.1 4.42248 17.0595 4.34145 16.9784L1.02157 13.6586L1.09212 13.588L1.02157 13.6586C0.943764 13.5807 0.9 13.4752 0.9 13.3651C0.9 13.255 0.943771 13.1495 1.0215 13.0717L1.02154 13.0716L2.08769 12.0055L2.11695 11.9763L2.11698 11.9762L2.14624 11.947L8.68976 5.40345L8.76047 5.47416L8.68976 5.40344L8.68976 5.40344L8.68977 5.40344L8.68977 5.40344L8.68977 5.40343L8.68977 5.40343L8.68978 5.40343L8.68978 5.40342L8.68978 5.40342L8.68979 5.40342L8.68979 5.40342L8.68979 5.40341L8.68979 5.40341L8.6898 5.40341L8.6898 5.40341L8.6898 5.4034L8.6898 5.4034L8.68981 5.4034L8.68981 5.40339L8.68981 5.40339L8.68982 5.40339L8.68982 5.40339L8.68982 5.40338L8.76053 5.47409L8.68982 5.40338L8.68983 5.40338L8.68983 5.40338L8.68983 5.40337L8.68983 5.40337L8.68984 5.40337L8.68984 5.40336L8.68984 5.40336L8.68985 5.40336L8.68985 5.40336L8.68985 5.40335L8.68985 5.40335L8.68986 5.40335L8.68986 5.40335L8.68986 5.40334L8.68986 5.40334L8.68987 5.40334L8.68987 5.40333L8.68987 5.40333L8.68988 5.40333L8.68988 5.40333L8.68988 5.40332L8.68988 5.40332L10.8799 3.2133L16.9784 4.34141ZM16.9784 4.34141L13.6586 1.02157L13.6585 1.02153M16.9784 4.34141L13.6585 1.02153M13.6585 1.02153C13.5807 0.94378 13.4752 0.9 13.3651 0.9C13.255 0.9 13.1495 0.943777 13.0717 1.02155L13.0716 1.02157M13.6585 1.02153L13.0716 1.02157M13.0716 1.02157L10.91 3.18322L13.0716 1.02157ZM10.8807 3.21251L10.8808 3.21244L10.8807 3.21251ZM10.8807 3.21251L10.8799 3.21327L10.8807 3.21251ZM12.8567 2.41041L13.7926 3.34651C13.7926 3.34651 13.7926 3.34651 13.7926 3.34652C13.9546 3.5086 13.9546 3.77138 13.7926 3.93346C13.7116 4.01446 13.6051 4.05503 13.4991 4.05503C13.3931 4.05503 13.2867 4.0145 13.2056 3.93346L12.2695 2.99736L11.7609 3.50594L12.2419 3.98698L12.1712 4.05769L12.2419 3.98699C12.404 4.14909 12.404 4.41187 12.2419 4.57396C12.1609 4.655 12.0545 4.69553 11.9485 4.69553C11.8424 4.69553 11.736 4.655 11.655 4.57396L11.174 4.09292L10.6654 4.60147L11.6015 5.5376C11.7636 5.69969 11.7636 5.96247 11.6015 6.12455L11.6015 6.12457C11.5205 6.20554 11.4142 6.24612 11.3081 6.24612C11.202 6.24612 11.0956 6.20559 11.0146 6.12455L11.0853 6.05384L11.0146 6.12455L10.0785 5.18845L9.57009 5.69689L10.0511 6.17807C10.0511 6.17808 10.0511 6.17808 10.0511 6.17808C10.2132 6.34017 10.2132 6.60294 10.0511 6.76502C9.97009 6.84602 9.86367 6.88659 9.75762 6.88659C9.65159 6.88659 9.5452 6.84606 9.46416 6.76502L8.98297 6.28383L8.47458 6.79222L9.41068 7.72832L9.41069 7.72833C9.57275 7.89043 9.57277 8.1532 9.4107 8.31529L12.8567 2.41041ZM12.8567 2.41041L13.3651 1.90202L16.098 4.63491L4.63491 16.098L1.90202 13.3651L2.41041 12.8567L2.8916 13.3379C2.97264 13.4189 3.07903 13.4595 3.18506 13.4595C3.29113 13.4595 3.39749 13.4189 3.47852 13.3379C3.64061 13.1758 3.6406 12.913 3.47853 12.7509L3.47853 12.7509L2.99736 12.2697L3.50594 11.7611L4.44188 12.6971C4.52292 12.7781 4.62931 12.8187 4.73534 12.8187C4.84144 12.8187 4.94778 12.7781 5.02879 12.6971L5.0288 12.6971C5.19089 12.535 5.19089 12.2722 5.0288 12.1101L4.09286 11.1742L4.60141 10.6656L5.0826 11.1468C5.16364 11.2279 5.27003 11.2684 5.37606 11.2684C5.4821 11.2684 5.58849 11.2279 5.66952 11.1468C5.83161 10.9847 5.8316 10.722 5.66953 10.5599L5.66952 10.5599L5.18833 10.0787L5.69675 9.57023L6.63282 10.5063L6.70353 10.4356L6.63282 10.5063C6.71386 10.5874 6.82025 10.6279 6.92628 10.6279C7.03236 10.6279 7.13875 10.5873 7.21974 10.5063C7.38183 10.3443 7.38183 10.0815 7.21974 9.91938L6.28364 8.98328L6.79211 8.47481L7.27329 8.9558C7.27329 8.95581 7.2733 8.95581 7.2733 8.95582C7.35433 9.03683 7.46072 9.07731 7.56669 9.07731C7.67279 9.07731 7.77919 9.03674 7.8602 8.95569C8.02224 8.79357 8.02219 8.53079 7.86008 8.36872L7.86007 8.36871L7.379 7.88786L7.88766 7.3792L8.82376 8.3153C8.90479 8.39634 9.01118 8.43687 9.11722 8.43687C9.22323 8.43687 9.32966 8.39636 9.41068 8.3153L12.8567 2.41041Z" fill="#848484" stroke="#848484" stroke-width="0.2"/>
<path d="M5.84347 12.9473L5.84349 12.9473C6.00562 12.7853 6.26833 12.7853 6.43044 12.9473L6.43046 12.9474C6.59253 13.1095 6.59254 13.3722 6.43042 13.5343L6.43041 13.5343M5.84347 12.9473L6.35971 13.4636L6.43041 13.5343M5.84347 12.9473L4.20841 14.5824C4.04632 14.7445 4.04633 15.0073 4.2084 15.1694L4.20841 15.1694C4.28944 15.2504 4.39583 15.291 4.50187 15.291C4.60792 15.291 4.71431 15.2504 4.79533 15.1694L5.84347 12.9473ZM6.43041 13.5343L4.79535 15.1694L6.43041 13.5343Z" fill="#848484" stroke="#848484" stroke-width="0.2"/>
<path d="M7.30431 11.5667C7.17457 11.5667 7.07053 11.6182 7.00031 11.7C6.93189 11.7796 6.90005 11.8825 6.9 11.9816C6.89995 12.0808 6.93167 12.1837 7.0001 12.2634C7.07034 12.3452 7.17445 12.3967 7.30431 12.3967C7.43406 12.3967 7.53809 12.3452 7.60831 12.2634C7.67673 12.1837 7.70856 12.0809 7.70861 11.9817C7.70866 11.8826 7.67694 11.7797 7.60851 11.7C7.53827 11.6182 7.43417 11.5667 7.30431 11.5667Z" fill="#848484" stroke="#848484" stroke-width="0.2"/>
</svg>
